<svg width="340" height="314" viewBox="0 0 340 314" fill="none" xmlns="http://www.w3.org/2000/svg">
<path d="M169.65 0.5625C200.308 0.5625 228.662 6.52907 254.715 18.4622C280.767 30.3954 301.363 46.6221 316.502 67.1421C331.641 87.6614 339.211 110.044 339.211 134.289C339.211 158.534 331.641 180.948 316.502 201.532C301.363 222.115 280.798 238.373 254.809 250.306C228.82 262.239 200.433 268.206 169.65 268.206C159.936 268.206 149.906 267.511 139.561 266.122C94.6473 297.312 70.7403 313.097 67.8385 313.475C66.4506 313.981 65.1256 313.917 63.8642 313.287C63.3594 312.908 62.9811 312.402 62.7287 311.771C62.4762 311.139 62.3504 310.572 62.3504 310.066V309.309C63.1076 304.384 68.8475 283.864 79.5714 247.749C55.2223 235.627 35.888 219.558 21.5688 199.543C7.24949 179.528 0.0898438 157.777 0.0898438 134.289C0.0898438 110.044 7.65952 87.6614 22.7989 67.1421C37.9382 46.6221 58.534 30.3954 84.5862 18.4622C110.638 6.52907 138.993 0.5625 169.65 0.5625Z" fill="#181600"/>
</svg>
