<svg width="18" height="21" viewBox="0 0 18 21" fill="none" xmlns="http://www.w3.org/2000/svg">
<path d="M11 8.38889V15.7778M7 8.38889V15.7778M3 4.16667V16.6222C3 17.8046 3 18.3953 3.21799 18.8469C3.40973 19.2441 3.71547 19.5677 4.0918 19.7701C4.5192 20 5.07899 20 6.19691 20H11.8031C12.921 20 13.48 20 13.9074 19.7701C14.2837 19.5677 14.5905 19.2441 14.7822 18.8469C15 18.3958 15 17.8055 15 16.6255V4.16667M3 4.16667H5M3 4.16667H1M5 4.16667H13M5 4.16667C5 3.18301 5 2.69143 5.15224 2.30347C5.35523 1.78619 5.74432 1.37496 6.23437 1.1607C6.60192 1 7.06812 1 8 1H10C10.9319 1 11.3978 1 11.7654 1.1607C12.2554 1.37496 12.6447 1.78619 12.8477 2.30347C12.9999 2.69143 13 3.18301 13 4.16667M13 4.16667H15M15 4.16667H17" stroke="#EDEDED" stroke-width="2" stroke-linecap="round" stroke-linejoin="round"/>
</svg>
